<svg width="86" height="91" viewBox="0 0 86 91" fill="none" xmlns="http://www.w3.org/2000/svg">
<g clip-path="url(#clip0_28_10)">
<path d="M39.7821 24.0401C39.7821 15.8325 38.2965 5.72597 30.1471 1.53776C21.4141 -2.95638 11.2485 3.38395 6.16575 10.4417C-5.53843 26.6775 3.91617 48.0194 15.2171 61.6601C22.1675 70.0471 31.2401 77.1259 34.8266 87.7599C35.3042 89.1841 39.3895 88.0237 38.9226 86.6628C35.9939 78.0015 29.4574 71.4818 23.3559 64.9305C17.2545 58.3792 12.0762 51.3742 8.61694 43.2088C5.15768 35.0434 3.58722 26.245 6.27186 17.858C7.60887 13.712 9.98579 9.86142 13.1904 6.88643C15.9493 4.33342 19.642 1.9703 23.5788 2.45558C28.2583 3.02526 31.7494 6.99192 33.4578 11.1063C35.1662 15.2206 35.6862 20.0207 35.6862 24.5465C35.6862 26.2345 39.7821 25.3694 39.7821 24.0401V24.0401Z" fill="#AEA1F0"/>
<path d="M39.9092 24.2311C44.2067 16.6987 51.1995 10.6748 59.2216 7.3306C63.0947 5.71651 67.2649 4.74594 71.4776 4.76704C72.5281 4.76704 73.5892 4.83034 74.6291 4.95693C75.5099 5.07298 77.0591 5.09408 77.8337 5.55826C78.6083 6.02245 79.4042 7.2251 79.9347 7.99523C80.582 8.9236 81.0701 9.93636 81.3991 11.0124C82.6406 15.074 81.2505 19.3466 79.2768 22.9441C77.1228 26.858 74.2577 30.3499 71.3396 33.7152C67.8486 37.7346 64.1452 41.5747 60.7072 45.6469C57.2692 49.719 53.7675 54.1393 50.5098 58.5491C43.3791 68.202 36.9805 78.3613 31.3141 88.9214C30.4015 90.6199 34.4975 90.1874 35.1342 89.0058C40.461 79.0681 46.4457 69.4785 53.0777 60.3425C56.5264 55.5952 60.1448 50.9639 63.9118 46.4697C67.6788 41.9756 71.5519 37.9773 75.287 33.6625C78.4067 30.0545 81.4946 26.2883 83.638 22.0051C85.5481 18.1967 86.8214 13.7764 85.3995 9.58822C84.6992 7.55214 83.2242 4.96748 81.3779 3.75428C80.5396 3.19515 79.2768 3.0791 78.29 2.91031C77.0697 2.69931 75.8388 2.56217 74.6079 2.49887C69.801 2.22458 64.9623 3.058 60.4313 4.59825C50.4568 7.98468 41.3417 14.9791 36.1104 24.1467C35.166 25.803 39.2619 25.4021 39.9304 24.2311H39.9092Z" fill="#AEA1F0"/>
</g>
<defs>
<clipPath id="clip0_28_10">
<rect width="85.1975" height="90.02" fill="white" transform="translate(0.796387 0.0299683)"/>
</clipPath>
</defs>
</svg>
